<svg width="80" height="40" viewBox="0 0 80 40" fill="none" xmlns="http://www.w3.org/2000/svg">
<path d="M7.99255 0C8.72132 0.000650699 9.42007 0.289878 9.93551 0.804228C10.4509 1.31858 10.741 2.01604 10.7419 2.74361V6.22507H16.3072C17.0262 6.24026 17.7106 6.53606 18.2136 7.04905C18.7167 7.56203 18.9984 8.25137 18.9984 8.96929C18.9984 9.6872 18.7167 10.3765 18.2136 10.8895C17.7106 11.4025 17.0262 11.6983 16.3072 11.7135H10.7419V18.3075C10.7411 18.9011 10.8576 19.4891 11.0848 20.0377C11.3119 20.5863 11.6452 21.0848 12.0656 21.5046C12.486 21.9244 12.9852 22.2573 13.5346 22.4842C14.0841 22.7111 14.673 22.8275 15.2676 22.8269H16.2222C16.9511 22.8269 17.6501 23.116 18.1655 23.6305C18.6809 24.145 18.9704 24.8428 18.9704 25.5705C18.9704 26.2981 18.6809 26.996 18.1655 27.5105C17.6501 28.025 16.9511 28.3141 16.2222 28.3141H15.2676C12.5145 28.3141 10.1297 27.3303 8.18101 25.3823C6.23229 23.4344 5.24438 21.0573 5.24438 18.3075V2.74361C5.24536 2.01626 5.53521 1.31898 6.05038 0.804661C6.56555 0.290347 7.26399 0.000976091 7.99255 0" fill="white"/>
<path d="M30.775 6.2251C33.8176 6.2251 36.4499 7.31344 38.5994 9.45815C40.7489 11.6029 41.8379 14.2321 41.8379 17.2696C41.8379 20.3071 40.7477 22.9364 38.5994 25.0872C36.4512 27.2381 33.8176 28.319 30.775 28.319C27.7324 28.319 25.0988 27.227 22.9506 25.0872C20.8023 22.9474 19.7122 20.3133 19.7122 17.2745C19.7122 14.2358 20.8011 11.609 22.9506 9.46307C25.1001 7.31713 27.7312 6.23002 30.775 6.23002M30.775 22.8318C31.5066 22.8338 32.2313 22.6914 32.9075 22.4128C33.5838 22.1342 34.1982 21.7249 34.7155 21.2085C35.2328 20.6921 35.6427 20.0786 35.9218 19.4035C36.2008 18.7284 36.3435 18.0049 36.3415 17.2745C36.3399 16.3613 36.1128 15.4626 35.6805 14.6578C35.2481 13.8531 34.6237 13.1671 33.8626 12.6605C33.1015 12.154 32.2271 11.8425 31.3167 11.7537C30.4063 11.6648 29.488 11.8013 28.643 12.151C27.7981 12.5008 27.0524 13.0531 26.4721 13.759C25.8918 14.4649 25.4947 15.3027 25.3159 16.1983C25.1371 17.0939 25.1821 18.0197 25.447 18.8938C25.7118 19.7679 26.1884 20.5633 26.8345 21.2098C27.3462 21.7339 27.9598 22.1483 28.6376 22.4274C29.3154 22.7065 30.0431 22.8446 30.7762 22.8331" fill="white"/>
<path d="M46.7416 0C47.4701 0.000976091 48.1686 0.290347 48.6837 0.804661C49.1989 1.31898 49.4888 2.01625 49.4897 2.7436V25.5705C49.4745 26.2882 49.1782 26.9715 48.6644 27.4737C48.1506 27.976 47.4601 28.2572 46.741 28.2572C46.0219 28.2572 45.3314 27.976 44.8175 27.4737C44.3037 26.9715 44.0074 26.2882 43.9922 25.5705V2.7436C43.9932 2.01604 44.2832 1.31858 44.7986 0.804227C45.3141 0.289878 46.0128 0.000650699 46.7416 0" fill="white"/>
<path d="M62.8476 6.2251C65.8914 6.2251 68.5238 7.31344 70.6733 9.45815C72.8228 11.6029 73.9104 14.2321 73.9104 17.2696C73.9101 17.9973 73.6205 18.6951 73.1052 19.2097C72.59 19.7244 71.8912 20.0138 71.1623 20.0144H64.38C63.7935 20.0122 63.2313 19.7802 62.8145 19.3682C62.3977 18.9563 62.1597 18.3974 62.1516 17.8119C62.1487 17.5179 62.2041 17.2262 62.3148 16.9536C62.4255 16.6811 62.5891 16.4331 62.7963 16.2241C63.0035 16.0151 63.2501 15.8491 63.522 15.7358C63.7938 15.6225 64.0854 15.5641 64.38 15.5639H68.1899L68.0421 15.2208L67.9682 15.0499C67.6883 14.4084 67.2877 13.8264 66.7881 13.3356C66.0095 12.557 65.0168 12.0266 63.9359 11.8117C62.8551 11.5968 61.7346 11.7071 60.7166 12.1286C59.6986 12.55 58.8287 13.2637 58.2173 14.1791C57.606 15.0946 57.2805 16.1706 57.2823 17.2708C57.2803 18.0011 57.4229 18.7245 57.7019 19.3995C57.9809 20.0746 58.3907 20.6879 58.9079 21.2044C59.4251 21.7208 60.0393 22.1301 60.7154 22.4087C61.3915 22.6874 62.1161 22.8299 62.8476 22.8281H71.2005C71.9293 22.8281 72.6283 23.1172 73.1437 23.6317C73.6591 24.1463 73.9486 24.8441 73.9486 25.5717C73.9486 26.2994 73.6591 26.9972 73.1437 27.5118C72.6283 28.0263 71.9293 28.3154 71.2005 28.3154H62.8476C59.805 28.3154 57.1726 27.2282 55.0231 25.0835C52.8736 22.9388 51.7847 20.3096 51.7847 17.2708C51.7847 14.2321 52.8749 11.6053 55.0231 9.45938C57.1714 7.31344 59.805 6.22633 62.8476 6.22633" fill="white"/>
<g clip-path="url(#clip0_2_513)">
<path d="M11.6265 33.1995L11.0258 33.8429C10.7648 33.4938 10.4376 33.2144 10.0679 33.0249C9.69816 32.8354 9.29536 32.7407 8.88882 32.7476C7.30523 32.7476 6.09571 34.0345 6.09571 35.9371C6.09571 37.8397 7.30523 39.1265 8.85342 39.1265C10.345 39.1265 11.2677 38.133 11.394 36.5131H9.19563V35.6662H12.2708C12.2708 35.7455 12.2814 35.8248 12.2814 35.8974C12.2814 38.2004 10.9834 39.9933 8.85932 39.9933C7.00315 39.9933 5.24963 38.4924 5.24963 35.9344C5.24963 33.5562 6.81198 31.8703 8.89472 31.8703C10.0075 31.8729 10.981 32.3697 11.6265 33.1995Z" fill="white"/>
<path d="M24.7496 31.9849C26.3379 31.9849 27.2146 32.7869 27.2146 34.2152C27.2146 35.5813 26.2706 36.4507 24.759 36.4507H24.641L27.1769 39.8859H26.1691L23.6828 36.4507H22.7907V39.8859H21.9789V31.9823L24.7496 31.9849ZM22.7907 32.8384V35.6276H24.7366C25.8104 35.6276 26.3697 35.1361 26.3697 34.2165C26.3697 33.2969 25.7974 32.8384 24.739 32.8384H22.7907Z" fill="white"/>
<path d="M43.751 35.9368C43.751 38.315 42.2075 40.0009 40.1059 40.0009C38.0043 40.0009 36.4608 38.3084 36.4608 35.9368C36.4608 33.5651 38.0078 31.8726 40.1059 31.8726C42.204 31.8726 43.751 33.5665 43.751 35.9368ZM37.3128 35.9368C37.3128 37.8393 38.5223 39.1262 40.1059 39.1262C41.6895 39.1262 42.9037 37.8393 42.9037 35.9368C42.9037 34.0342 41.693 32.7473 40.1059 32.7473C38.5188 32.7473 37.3128 34.0342 37.3128 35.9368Z" fill="white"/>
<path d="M59.1626 36.7942C59.1626 38.9399 57.8646 39.9956 56.2527 39.9956C54.6408 39.9956 53.3486 38.9386 53.3486 36.7942V31.9849H54.1558V36.7269C54.1558 38.381 55.0479 39.1262 56.2527 39.1262C57.4575 39.1262 58.3507 38.381 58.3507 36.7269V31.9849H59.1626V36.7942Z" fill="white"/>
<path d="M69.9757 36.7097V39.8886H69.1603V31.9849H71.8272C73.4108 31.9849 74.3229 32.8715 74.3229 34.3499C74.3229 35.8284 73.4108 36.7097 71.8272 36.7097H69.9757ZM69.9757 32.8437V35.8575H71.8059C72.8951 35.8575 73.4851 35.3554 73.4851 34.3499C73.4851 33.3445 72.8951 32.8437 71.8059 32.8437H69.9757Z" fill="white"/>
</g>
<defs>
<clipPath id="clip0_2_513">
<rect width="69.0827" height="8.12737" fill="white" transform="translate(5.24445 31.8726)"/>
</clipPath>
</defs>
</svg>
